<svg width="124" height="133" viewBox="0 0 124 133" fill="none" xmlns="http://www.w3.org/2000/svg">
<path d="M27.2371 29.9751C25.0352 26.1551 26.3419 21.2619 30.1563 19.0544L61.256 1.07185C65.0705 -1.13565 69.9525 0.176625 72.16 3.99666C74.362 7.82225 73.0553 12.7099 69.2408 14.9174L38.1412 32.8999C34.3267 35.1074 29.4446 33.7951 27.2371 29.9751Z" fill="#37D5C7"/>
<path d="M49.206 128.028C47.004 124.203 48.3107 119.315 52.1252 117.107L83.2249 99.125C87.0394 96.9175 91.9214 98.2297 94.1289 102.05C96.3308 105.875 95.0241 110.763 91.2097 112.971L60.1045 130.953C56.29 133.16 51.4079 131.848 49.2004 128.028H49.206Z" fill="#37D5C7"/>
<path d="M65.0036 63.5158C62.7961 59.6902 64.1084 54.8025 67.9228 52.595L111.122 27.6175C114.936 25.41 119.818 26.7223 122.026 30.5423C124.228 34.3679 122.921 39.2555 119.107 41.463L75.9076 66.4406C72.0875 68.6481 67.2111 67.3358 65.0036 63.5158Z" fill="#37D5C7"/>
<path d="M1.06956 100.482C-1.13238 96.6561 0.174325 91.7685 3.9888 89.561L50.6409 62.5872C54.461 60.3797 59.3374 61.692 61.5449 65.512C63.7469 69.3376 62.4402 74.2252 58.6257 76.4327L11.9735 103.412C8.15906 105.62 3.27706 104.307 1.06956 100.487V100.482Z" fill="#37D5C7"/>
<path d="M72.0374 31.7601C69.8355 27.9345 71.1422 23.0469 74.9566 20.8394L83.5976 15.8461C87.4121 13.6386 92.2941 14.9508 94.5016 18.7709C96.7035 22.5965 95.3968 27.4841 91.5823 29.6916L82.9415 34.6849C79.127 36.8924 74.2449 35.5801 72.0374 31.7601Z" fill="#37D5C7"/>
<path d="M97.5823 100.054C95.3804 96.228 96.6871 91.3403 100.502 89.1328L109.143 84.1395C112.963 81.932 117.839 83.2443 120.047 87.0644C122.249 90.8899 120.942 95.7775 117.127 97.985L108.486 102.978C104.672 105.186 99.7898 103.874 97.5823 100.054Z" fill="#37D5C7"/>
<path d="M25.1407 114.255C22.9388 110.435 24.2455 105.542 28.06 103.334L36.7009 98.3408C40.521 96.1333 45.3975 97.4456 47.605 101.266C49.807 105.091 48.5003 109.979 44.6858 112.186L36.0448 117.18C32.2304 119.387 27.3482 118.075 25.1407 114.255Z" fill="#37D5C7"/>
<path d="M1.31992 44.9606C-0.882015 41.135 0.424692 36.2474 4.23916 34.0399L12.8801 29.041C16.6946 26.8335 21.5766 28.1458 23.7841 31.9658C25.986 35.7914 24.6793 40.6791 20.8649 42.8866L12.2239 47.8798C8.40387 50.0873 3.52742 48.7751 1.31992 44.955V44.9606Z" fill="#37D5C7"/>
<path d="M1.19199 72.7239C-1.00994 68.8983 0.296762 64.0107 4.11123 61.8032L57.675 30.8315C61.4894 28.624 66.3716 29.9362 68.5791 33.7562C70.781 37.5818 69.4743 42.4695 65.6599 44.677L12.096 75.6487C8.2815 77.8562 3.39949 76.544 1.19199 72.7239Z" fill="#37D5C7"/>
<path d="M51.0579 99.2695C48.856 95.4439 50.1627 90.5562 53.9771 88.3487L107.541 57.377C111.355 55.1695 116.237 56.4818 118.445 60.3018C120.647 64.1219 119.34 69.015 115.526 71.2225L61.9619 102.194C58.1474 104.402 53.2654 103.089 51.0579 99.2695Z" fill="#37D5C7"/>
</svg>
