<svg id="svg" version="1.1" xmlns="http://www.w3.org/2000/svg" xmlns:xlink="http://www.w3.org/1999/xlink" width="40" height="40" viewBox="0, 0, 400,400"><g id="svgg"><path id="path0" d="M159.700 117.495 C 154.631 117.659,154.807 117.450,153.389 125.000 C 152.278 130.914,152.264 132.587,153.263 140.500 C 153.981 146.187,148.620 145.600,199.870 145.600 L 243.445 145.600 246.017 146.469 C 252.408 148.627,254.586 152.914,254.081 162.338 C 253.727 168.935,253.980 171.072,255.495 174.290 L 256.206 175.799 262.444 177.386 L 268.682 178.973 275.000 176.332 L 281.317 173.692 282.290 171.346 C 283.254 169.021,283.259 168.943,282.831 162.592 C 282.594 159.068,282.399 153.218,282.399 149.592 C 282.397 142.546,282.041 141.092,280.058 140.031 C 278.947 139.436,276.187 135.171,275.420 132.861 C 274.750 130.843,269.154 124.805,267.946 124.796 C 266.637 124.787,262.978 122.647,260.880 120.663 C 259.626 119.478,258.150 118.260,257.600 117.956 C 256.661 117.438,173.533 117.046,159.700 117.495 M124.604 153.423 C 117.236 154.856,117.772 154.180,117.435 162.471 C 117.280 166.282,117.184 191.270,117.220 218.000 C 117.256 244.730,117.166 266.891,117.020 267.248 C 116.768 267.864,117.622 273.288,118.398 275.994 C 120.085 281.877,127.299 284.408,136.767 282.440 C 145.715 280.580,145.818 280.207,145.652 250.200 C 145.494 221.461,146.459 216.974,153.658 212.987 L 155.800 211.800 199.995 211.600 L 244.189 211.400 246.058 208.926 L 247.926 206.451 247.701 199.926 C 247.462 193.045,247.178 191.786,245.379 189.648 L 244.329 188.400 200.353 188.400 L 156.377 188.400 154.089 187.235 C 147.800 184.034,145.600 177.780,145.600 163.107 C 145.600 154.092,145.499 153.897,140.487 153.254 C 133.141 152.312,130.150 152.344,124.604 153.423 " stroke="none" fill="#eeeeee" fill-rule="evenodd"></path><path id="path1" d="M152.591 111.136 C 147.786 113.418,145.613 116.858,145.600 122.200 C 145.581 130.103,144.235 142.325,143.280 143.280 C 142.325 144.235,130.103 145.581,122.200 145.600 C 116.791 145.613,113.386 147.802,111.068 152.758 L 109.868 155.320 109.755 211.560 C 109.614 281.911,109.614 281.911,113.481 286.046 C 116.088 288.833,117.896 289.434,125.400 290.013 C 137.987 290.984,145.340 289.873,148.934 286.458 C 152.658 282.919,152.865 281.152,152.950 252.200 L 153.014 230.200 154.452 227.000 C 156.302 222.883,151.495 223.265,201.879 223.230 L 244.359 223.200 247.899 219.831 C 254.152 213.880,255.518 210.039,254.801 200.420 C 254.033 190.098,253.894 190.258,264.200 189.608 C 276.854 188.810,281.276 188.216,283.058 187.077 C 289.348 183.054,290.709 176.501,290.055 153.400 C 289.560 135.942,288.476 131.267,284.097 127.704 C 281.708 125.762,274.238 118.292,272.296 115.903 C 270.592 113.809,268.206 112.531,263.382 111.129 L 260.200 110.205 207.600 110.098 L 155.000 109.991 152.591 111.136 M261.510 114.733 C 269.040 117.765,280.415 128.590,284.226 136.351 C 286.560 141.104,286.709 142.198,286.979 156.609 L 287.227 169.819 286.199 173.364 C 284.914 177.798,283.547 180.718,282.112 182.093 C 279.727 184.377,266.369 185.973,258.000 184.974 C 252.798 184.353,251.800 186.482,251.800 198.200 L 251.800 207.400 250.696 209.648 C 249.410 212.266,246.946 215.197,245.041 216.375 C 243.713 217.195,243.456 217.200,200.107 217.200 C 156.985 217.200,156.497 217.209,155.482 218.007 C 154.240 218.984,152.030 223.525,150.697 227.836 L 149.719 231.000 149.846 250.600 C 150.063 284.028,149.668 285.183,137.484 286.739 C 131.722 287.475,130.882 287.495,127.302 286.976 C 118.679 285.727,118.513 285.675,116.425 283.587 C 112.908 280.070,112.910 280.118,113.003 212.995 C 113.091 148.872,112.742 155.220,116.376 151.585 C 117.763 150.199,118.688 149.625,119.835 149.441 C 123.347 148.876,129.414 148.406,136.526 148.147 C 147.141 147.761,147.992 147.172,148.006 140.200 C 148.014 135.727,148.672 125.600,149.213 121.602 C 149.679 118.159,150.628 116.686,153.780 114.515 L 155.705 113.188 206.952 113.294 L 258.200 113.400 261.510 114.733 M153.848 150.414 C 150.691 151.359,150.168 152.896,149.836 162.200 L 149.594 169.000 151.114 173.423 C 152.816 178.377,154.369 181.299,155.795 182.234 C 157.104 183.091,244.132 182.900,246.312 182.034 C 248.912 181.002,249.539 178.038,249.875 165.200 L 250.111 156.200 248.744 154.412 C 247.992 153.428,246.603 152.033,245.657 151.312 L 243.938 150.000 199.469 150.034 C 175.011 150.053,154.481 150.224,153.848 150.414 M245.344 154.743 L 246.851 156.286 246.725 163.643 C 246.600 170.974,246.595 171.010,245.321 173.700 L 244.042 176.400 239.721 176.431 C 216.886 176.593,162.599 176.618,159.667 176.467 L 155.935 176.275 154.929 174.038 C 152.746 169.178,152.727 169.061,153.029 162.205 L 153.311 155.809 154.615 154.505 L 155.920 153.200 199.879 153.200 L 243.838 153.200 245.344 154.743 " stroke="none" fill="#5c5c5c" fill-rule="evenodd"></path><path id="path2" d="M153.780 114.515 C 150.628 116.686,149.679 118.159,149.213 121.602 C 148.672 125.600,148.014 135.727,148.006 140.200 C 147.992 147.172,147.141 147.761,136.526 148.147 C 129.414 148.406,123.347 148.876,119.835 149.441 C 118.688 149.625,117.763 150.199,116.376 151.585 C 112.742 155.220,113.091 148.872,113.003 212.995 C 112.910 280.118,112.908 280.070,116.425 283.587 C 118.513 285.675,118.679 285.727,127.302 286.976 C 130.882 287.495,131.722 287.475,137.484 286.739 C 149.668 285.183,150.063 284.028,149.846 250.600 L 149.719 231.000 150.697 227.836 C 152.030 223.525,154.240 218.984,155.482 218.007 C 156.497 217.209,156.985 217.200,200.107 217.200 C 243.456 217.200,243.713 217.195,245.041 216.375 C 246.946 215.197,249.410 212.266,250.696 209.648 L 251.800 207.400 251.800 198.200 C 251.800 186.482,252.798 184.353,258.000 184.974 C 266.369 185.973,279.727 184.377,282.112 182.093 C 283.547 180.718,284.914 177.798,286.199 173.364 L 287.227 169.819 286.979 156.609 C 286.709 142.198,286.560 141.104,284.226 136.351 C 280.415 128.590,269.040 117.765,261.510 114.733 L 258.200 113.400 206.952 113.294 L 155.705 113.188 153.780 114.515 M257.600 117.956 C 258.150 118.260,259.626 119.478,260.880 120.663 C 262.978 122.647,266.637 124.787,267.946 124.796 C 269.154 124.805,274.750 130.843,275.420 132.861 C 276.187 135.171,278.947 139.436,280.058 140.031 C 282.041 141.092,282.397 142.546,282.399 149.592 C 282.399 153.218,282.594 159.068,282.831 162.592 C 283.259 168.943,283.254 169.021,282.290 171.346 L 281.317 173.692 275.000 176.332 L 268.682 178.973 262.444 177.386 L 256.206 175.799 255.495 174.290 C 253.980 171.072,253.727 168.935,254.081 162.338 C 254.586 152.914,252.408 148.627,246.017 146.469 L 243.445 145.600 199.870 145.600 C 148.620 145.600,153.981 146.187,153.263 140.500 C 152.264 132.587,152.278 130.914,153.389 125.000 C 154.807 117.450,154.631 117.659,159.700 117.495 C 173.533 117.046,256.661 117.438,257.600 117.956 M245.657 151.312 C 246.603 152.033,247.992 153.428,248.744 154.412 L 250.111 156.200 249.875 165.200 C 249.539 178.038,248.912 181.002,246.312 182.034 C 244.132 182.900,157.104 183.091,155.795 182.234 C 154.369 181.299,152.816 178.377,151.114 173.423 L 149.594 169.000 149.836 162.200 C 150.168 152.896,150.691 151.359,153.848 150.414 C 154.481 150.224,175.011 150.053,199.469 150.034 L 243.938 150.000 245.657 151.312 M140.487 153.254 C 145.499 153.897,145.600 154.092,145.600 163.107 C 145.600 177.780,147.800 184.034,154.089 187.235 L 156.377 188.400 200.353 188.400 L 244.329 188.400 245.379 189.648 C 247.178 191.786,247.462 193.045,247.701 199.926 L 247.926 206.451 246.058 208.926 L 244.189 211.400 199.995 211.600 L 155.800 211.800 153.658 212.987 C 146.459 216.974,145.494 221.461,145.652 250.200 C 145.818 280.207,145.715 280.580,136.767 282.440 C 127.299 284.408,120.085 281.877,118.398 275.994 C 117.622 273.288,116.768 267.864,117.020 267.248 C 117.166 266.891,117.256 244.730,117.220 218.000 C 117.144 162.436,117.285 155.825,118.562 154.988 C 121.642 152.970,131.928 152.157,140.487 153.254 " stroke="none" fill="#848484" fill-rule="evenodd"></path><path id="path3" d="M151.248 107.642 C 148.295 108.145,145.853 109.295,144.953 110.608 C 144.539 111.212,143.757 112.088,143.215 112.554 C 142.674 113.019,141.212 114.405,139.967 115.632 L 137.703 117.865 137.417 124.632 L 137.131 131.400 134.319 134.256 L 131.507 137.112 124.667 137.406 L 117.827 137.699 115.413 140.231 C 112.430 143.361,111.903 143.888,110.212 145.428 C 107.213 148.160,107.400 143.358,107.400 217.600 C 107.400 291.623,107.220 286.900,110.153 289.833 C 112.597 292.277,114.197 292.514,129.470 292.703 C 157.036 293.042,155.238 295.500,155.443 257.200 C 155.521 242.790,155.681 230.595,155.800 230.100 L 156.015 229.200 200.108 229.194 C 237.693 229.189,244.572 229.101,246.720 228.594 C 252.198 227.303,254.077 225.343,255.589 219.346 C 255.919 218.038,256.453 217.354,258.138 216.082 C 264.398 211.356,265.309 204.503,261.027 194.349 C 260.636 193.423,265.292 192.800,275.600 192.401 C 293.004 191.727,293.054 191.613,292.688 153.656 C 292.409 124.628,291.862 122.786,282.943 120.787 C 280.618 120.266,279.728 119.532,279.395 117.859 C 278.080 111.263,275.881 109.206,268.800 107.947 C 265.547 107.369,154.549 107.081,151.248 107.642 M263.382 111.129 C 268.206 112.531,270.592 113.809,272.296 115.903 C 274.238 118.292,281.708 125.762,284.097 127.704 C 288.476 131.267,289.560 135.942,290.055 153.400 C 290.709 176.501,289.348 183.054,283.058 187.077 C 281.276 188.216,276.854 188.810,264.200 189.608 C 253.894 190.258,254.033 190.098,254.801 200.420 C 255.518 210.039,254.152 213.880,247.899 219.831 L 244.359 223.200 201.879 223.230 C 151.495 223.265,156.302 222.883,154.452 227.000 L 153.014 230.200 152.950 252.200 C 152.865 281.152,152.658 282.919,148.934 286.458 C 145.340 289.873,137.987 290.984,125.400 290.013 C 117.896 289.434,116.088 288.833,113.481 286.046 C 109.614 281.911,109.614 281.911,109.755 211.560 L 109.868 155.320 111.068 152.758 C 113.386 147.802,116.791 145.613,122.200 145.600 C 130.103 145.581,142.325 144.235,143.280 143.280 C 144.235 142.325,145.581 130.103,145.600 122.200 C 145.613 116.858,147.786 113.418,152.591 111.136 L 155.000 109.991 207.600 110.098 L 260.200 110.205 263.382 111.129 M154.615 154.505 L 153.311 155.809 153.029 162.205 C 152.727 169.061,152.746 169.178,154.929 174.038 L 155.935 176.275 159.667 176.467 C 162.599 176.618,216.886 176.593,239.721 176.431 L 244.042 176.400 245.321 173.700 C 246.595 171.010,246.600 170.974,246.725 163.643 L 246.851 156.286 245.344 154.743 L 243.838 153.200 199.879 153.200 L 155.920 153.200 154.615 154.505 M243.867 156.132 C 244.365 156.629,244.665 168.415,244.212 169.700 L 243.825 170.800 199.951 170.800 L 156.078 170.800 155.705 169.700 C 155.341 168.629,155.428 159.881,155.828 157.323 C 156.005 156.191,156.196 156.028,157.514 155.884 C 160.420 155.567,243.539 155.806,243.867 156.132 " stroke="none" fill="#1c1c1c" fill-rule="evenodd"></path><path id="path4" d="M0.000 200.000 L 0.000 400.000 200.000 400.000 L 400.000 400.000 400.000 200.000 L 400.000 0.000 200.000 0.000 L 0.000 0.000 0.000 200.000 M268.800 107.947 C 275.881 109.206,278.080 111.263,279.395 117.859 C 279.728 119.532,280.618 120.266,282.943 120.787 C 291.862 122.786,292.409 124.628,292.688 153.656 C 293.054 191.613,293.004 191.727,275.600 192.401 C 265.292 192.800,260.636 193.423,261.027 194.349 C 265.309 204.503,264.398 211.356,258.138 216.082 C 256.453 217.354,255.919 218.038,255.589 219.346 C 254.077 225.343,252.198 227.303,246.720 228.594 C 244.572 229.101,237.693 229.189,200.108 229.194 L 156.015 229.200 155.800 230.100 C 155.681 230.595,155.521 242.790,155.443 257.200 C 155.238 295.500,157.036 293.042,129.470 292.703 C 114.197 292.514,112.597 292.277,110.153 289.833 C 107.220 286.900,107.400 291.623,107.400 217.600 C 107.400 143.358,107.213 148.160,110.212 145.428 C 111.903 143.888,112.430 143.361,115.413 140.231 L 117.827 137.699 124.667 137.406 L 131.507 137.112 134.319 134.256 L 137.131 131.400 137.417 124.632 L 137.703 117.865 139.967 115.632 C 141.212 114.405,142.674 113.019,143.215 112.554 C 143.757 112.088,144.539 111.212,144.953 110.608 C 145.853 109.295,148.295 108.145,151.248 107.642 C 154.549 107.081,265.547 107.369,268.800 107.947 M157.514 155.884 C 156.196 156.028,156.005 156.191,155.828 157.323 C 155.428 159.881,155.341 168.629,155.705 169.700 L 156.078 170.800 199.951 170.800 L 243.825 170.800 244.212 169.700 C 244.665 168.415,244.365 156.629,243.867 156.132 C 243.539 155.806,160.420 155.567,157.514 155.884 " stroke="none" fill="#040404" fill-rule="evenodd"></path></g></svg>