<?xml version="1.0" encoding="UTF-8"?>
<svg version="1.1" xmlns="http://www.w3.org/2000/svg" width="40" height="40">
<path d="M0 0 C13.2 0 26.4 0 40 0 C40 13.2 40 26.4 40 40 C26.8 40 13.6 40 0 40 C0 26.8 0 13.6 0 0 Z " fill="#0202ED" transform="translate(0,0)"/>
<path d="M0 0 C2.31 0 4.62 0 7 0 C7 1.65 7 3.3 7 5 C7.66 3.35 8.32 1.7 9 0 C12.96 0 16.92 0 21 0 C22.08062462 3.24187386 21.96405231 3.89709861 21.00390625 7.01171875 C20.77509766 7.76904297 20.54628906 8.52636719 20.31054688 9.30664062 C20.06369141 10.09232422 19.81683594 10.87800781 19.5625 11.6875 C19.31951172 12.48478516 19.07652344 13.28207031 18.82617188 14.10351562 C18.22520262 16.07139534 17.6136095 18.03602495 17 20 C14.69 20.33 12.38 20.66 10 21 C9.01 23.475 9.01 23.475 8 26 C10.31 26 12.62 26 15 26 C14.34 27.98 13.68 29.96 13 32 C6.4 32 -0.2 32 -7 32 C-7 23.00396668 -7 23.00396668 -5.94140625 19.89453125 C-5.72033203 19.22099609 -5.49925781 18.54746094 -5.27148438 17.85351562 C-5.03751953 17.17998047 -4.80355469 16.50644531 -4.5625 15.8125 C-3.13720617 11.56855786 -1.80723912 7.41238472 -1 3 C-0.67 2.01 -0.34 1.02 0 0 Z " fill="#1414EE" transform="translate(7,8)"/>
<path d="M0 0 C3.96 0 7.92 0 12 0 C13.39035371 4.17106112 11.90230806 7.18206859 10.5625 11.1875 C10.31951172 11.93708984 10.07652344 12.68667969 9.82617188 13.45898438 C9.22534944 15.30857501 8.61370322 17.15464327 8 19 C6.02 19 4.04 19 2 19 C2.14168137 17.56208484 2.28851043 16.1246763 2.4375 14.6875 C2.51871094 13.88699219 2.59992187 13.08648437 2.68359375 12.26171875 C3 10 3 10 4 7 C2.02 7 0.04 7 -2 7 C-1.34 4.69 -0.68 2.38 0 0 Z " fill="#F4F4FE" transform="translate(16,8)"/>
<path d="M0 0 C2.31 0 4.62 0 7 0 C4.86662595 8.06480039 2.49320448 16.03946386 0 24 C-1.65 24 -3.3 24 -5 24 C-5.27338172 17.93092582 -4.46092445 13.22377946 -2.5 7.5 C-2.26152344 6.77296875 -2.02304687 6.0459375 -1.77734375 5.296875 C-1.19539824 3.52776065 -0.59919543 1.76334654 0 0 Z " fill="#F3F3FE" transform="translate(5,16)"/>
<path d="M0 0 C2.31 0 4.62 0 7 0 C6.34 2.31 5.68 4.62 5 7 C3.02 7 1.04 7 -1 7 C-0.67 4.69 -0.34 2.38 0 0 Z " fill="#E6E6FD" transform="translate(7,8)"/>
<path d="M0 0 C2.31 0 4.62 0 7 0 C6.34 1.98 5.68 3.96 5 6 C3.02 6 1.04 6 -1 6 C-0.67 4.02 -0.34 2.04 0 0 Z " fill="#F2F2FE" transform="translate(15,34)"/>
<path d="M0 0 C2.31 0 4.62 0 7 0 C6.34 1.98 5.68 3.96 5 6 C3.02 6 1.04 6 -1 6 C-0.67 4.02 -0.34 2.04 0 0 Z " fill="#F7F7FE" transform="translate(10,28)"/>
</svg>
